<svg xmlns="http://www.w3.org/2000/svg" width="50" height="49" viewBox="0 0 50 49">
    <g fill="none" fill-rule="evenodd">
        <path fill="#9B9B9B" d="M25.806 47.41c0 .483-.322.886-.806.886-.484 0-.806-.403-.806-.887V33.62c0-.484.322-.887.806-.887.484 0 .806.403.806.887v13.79z"/>
        <path fill="#D6D6D6" d="M50 23.377c0 .484-.323.806-.806.806h-13.71c-.484 0-.807-.322-.807-.806 0-.484.323-.806.807-.806h13.71c.483 0 .806.322.806.806z"/>
        <path fill="#515151" d="M15.323 23.377c0 .484-.323.806-.807.806H.806c-.483 0-.806-.322-.806-.806 0-.484.323-.806.806-.806h13.71c.484 0 .807.322.807.806z"/>
        <path fill="#EDEDED" d="M32.903 16.603a.877.877 0 0 1-1.21 0 .877.877 0 0 1 0-1.21l9.759-9.758a.877.877 0 0 1 1.21 0 .877.877 0 0 1 0 1.21l-9.759 9.758z"/>
        <path fill="#7A7A7A" d="M8.548 40.958a.877.877 0 0 1-1.21 0 .877.877 0 0 1 0-1.21l9.759-9.758a.877.877 0 0 1 1.21 0 .877.877 0 0 1 0 1.21l-9.759 9.758z"/>
        <path fill="#BFBFBF" d="M31.694 31.2a.877.877 0 0 1 0-1.21.877.877 0 0 1 1.21 0l9.757 9.758a.877.877 0 0 1 0 1.21.877.877 0 0 1-1.21 0L31.695 31.2z"/>
        <path fill="#2B2B2B" d="M7.339 6.764a.78.78 0 0 1 0-1.129.877.877 0 0 1 1.21 0l9.757 9.758a.877.877 0 0 1 0 1.21.877.877 0 0 1-1.21 0L7.34 6.764z"/>
        <path fill="#F4F4F4" d="M29.758 14.022c-.242.484-.726.645-1.129.484-.403-.161-.645-.645-.484-1.129L33.387.635c.161-.403.645-.645 1.13-.484.402.162.644.645.483 1.13l-5.242 12.741z"/>
        <path fill="#898989" d="M16.613 45.958c-.161.403-.645.645-1.13.484-.402-.162-.644-.646-.483-1.13l5.242-12.741c.161-.404.645-.646 1.129-.484.403.161.645.645.484 1.129l-5.242 12.742z"/>
        <path fill="#CCC" d="M34.274 27.974c-.403-.162-.645-.645-.484-1.13.162-.402.645-.644 1.13-.483l12.741 5.242c.404.161.645.645.484 1.129-.161.403-.645.645-1.129.484l-12.742-5.242z"/>
        <path fill="#3F3F3F" d="M2.339 14.829c-.404-.162-.645-.646-.484-1.13.161-.403.645-.645 1.129-.483l12.742 5.322c.403.162.645.645.484 1.13-.162.403-.645.645-1.13.483L2.34 14.83z"/>
        <path fill="#E2E2E2" d="M34.839 20.07c-.404.162-.887 0-1.13-.483-.16-.404 0-.968.485-1.13l12.741-5.322c.404-.161.968 0 1.13.484.16.403 0 .968-.484 1.129l-12.742 5.323z"/>
        <path fill="#6D6D6D" d="M3.065 33.377c-.404.161-.968 0-1.13-.484-.16-.403 0-.968.484-1.129l12.742-5.322c.404-.162.887 0 1.13.483.16.404 0 .968-.485 1.13L3.065 33.376z"/>
        <path fill="#ADADAD" d="M28.226 33.135c-.161-.403 0-.887.484-1.129.403-.161.967 0 1.129.484l5.322 12.742c.162.403 0 .968-.484 1.129-.403.161-.967 0-1.129-.484l-5.322-12.742z"/>
        <path fill="#0C0C0C" d="M14.92 1.28c-.162-.403 0-.968.483-1.129.403-.161.968 0 1.13.484l5.241 12.742c.161.403 0 .968-.484 1.129-.403.161-.967 0-1.129-.484L14.92 1.28z"/>
    </g>
</svg>
